<?xml version="1.0" encoding="utf-8"?>
<!-- Generator: Adobe Illustrator 16.0.0, SVG Export Plug-In . SVG Version: 6.00 Build 0)  -->
<!DOCTYPE svg PUBLIC "-//W3C//DTD SVG 1.1//EN" "http://www.w3.org/Graphics/SVG/1.1/DTD/svg11.dtd">
<svg version="1.1" id="Layer_1" xmlns="http://www.w3.org/2000/svg" xmlns:xlink="http://www.w3.org/1999/xlink" x="0px" y="0px"
	 width="229.908px" height="85.834px" viewBox="0 0 229.908 85.834" enable-background="new 0 0 229.908 85.834"
	 xml:space="preserve">
<g>
	<path fill-rule="evenodd" clip-rule="evenodd" fill="#344FA0" d="M87.586,8.91C76.736,0.54,62.531-2.127,49.385,1.738
		C36.238,5.606,25.74,15.538,21.15,28.45H0v28.801h21.205c4.601,12.792,15.006,22.634,28.033,26.515
		c13.025,3.883,27.12,1.344,37.973-6.84l0.449,0.34c15.381,11.549,36.582,11.412,51.812-0.34
		c10.853,8.184,24.949,10.723,37.975,6.84c13.025-3.881,23.432-13.723,28.031-26.515h24.432V28.45h-24.377
		c-4.59-12.913-15.086-22.844-28.234-26.712c-13.148-3.865-27.35-1.198-38.199,7.172C123.849-2.586,102.83-2.586,87.586,8.91z"/>
	<rect x="2.171" y="30.617" fill-rule="evenodd" clip-rule="evenodd" fill="#FFFFFF" width="225.569" height="24.466"/>
	<g>
		<g>
			<path fill-rule="evenodd" clip-rule="evenodd" fill="#3953A3" d="M61.455,2.171c-16.9,0-32.033,10.466-37.995,26.279h75.988
				C93.487,12.637,78.354,2.171,61.455,2.171z"/>
			<path fill-rule="evenodd" clip-rule="evenodd" fill="#3953A3" d="M99.389,57.251H23.518
				c6.005,15.734,21.098,26.128,37.937,26.128S93.386,72.986,99.389,57.251z"/>
		</g>
	</g>
	<g>
		<g>
			<path fill-rule="evenodd" clip-rule="evenodd" fill="#9596CA" d="M89.321,10.324c10.196-7.481,23.296-9.784,35.428-6.231
				c12.137,3.554,21.925,12.559,26.475,24.358h-49.466C99.262,21.427,94.975,15.179,89.321,10.324z"/>
			<path fill-rule="evenodd" clip-rule="evenodd" fill="#9596CA" d="M88.96,75.532c10.24,7.688,23.505,10.096,35.792,6.498
				c12.287-3.6,22.156-12.781,26.632-24.778h-49.678C99.146,64.365,94.75,70.671,88.96,75.532z"/>
		</g>
	</g>
	<g>
		<g>
			<path fill-rule="evenodd" clip-rule="evenodd" fill="#D2C8E3" d="M153.541,28.45h49.681
				c-4.509-11.957-14.384-21.095-26.651-24.663c-12.27-3.571-25.505-1.156-35.725,6.517
				C146.598,15.133,150.976,21.391,153.541,28.45z"/>
			<path fill-rule="evenodd" clip-rule="evenodd" fill="#D2C8E3" d="M141.208,75.512c5.69-4.886,9.994-11.184,12.483-18.261h49.472
				c-4.519,11.84-14.304,20.89-26.458,24.472C164.552,85.305,151.421,83.008,141.208,75.512z"/>
		</g>
	</g>
	<text transform="matrix(1.1811 0 0 1 5.5596 52.0122)"><tspan x="0" y="0" fill="#3953A3" font-family="'LetterGothicStd'" font-size="23.6379">T</tspan><tspan x="14.183" y="0" fill="#3953A3" font-family="'LetterGothicStd'" font-size="23.6379">ECNO-PAINEIS</tspan></text>
	<rect x="63.718" y="83.379" fill-rule="evenodd" clip-rule="evenodd" fill="#344FA0" width="166.189" height="2.168"/>
</g>
</svg>
