<?xml version="1.0" encoding="utf-8"?>
<!-- Generator: Adobe Illustrator 16.0.0, SVG Export Plug-In . SVG Version: 6.00 Build 0)  -->
<!DOCTYPE svg PUBLIC "-//W3C//DTD SVG 1.1//EN" "http://www.w3.org/Graphics/SVG/1.1/DTD/svg11.dtd">
<svg version="1.1" id="Layer_1" xmlns="http://www.w3.org/2000/svg" xmlns:xlink="http://www.w3.org/1999/xlink" x="0px" y="0px"
	 width="229.386px" height="85.835px" viewBox="0 0 229.386 85.835" enable-background="new 0 0 229.386 85.835"
	 xml:space="preserve">
<g>
	<g>
		<path fill="#020202" d="M101.371,28.58c-2.471-6.951-6.735-13.168-12.335-17.976l0.246-0.286
			c5.648,4.852,9.952,11.123,12.442,18.136L101.371,28.58z"/>
	</g>
	<g>
		<path fill="#020202" d="M152.951,28.581c-2.54-6.99-6.893-13.213-12.588-17.996l0.242-0.288
			c5.747,4.825,10.138,11.103,12.699,18.155L152.951,28.581z"/>
	</g>
	<g>
		<path fill="#020202" d="M204.739,28.58c-4.54-12.765-15.006-22.667-28.001-26.489c-13.003-3.82-27.161-1.162-37.882,7.111
			l-0.231-0.298c10.821-8.348,25.108-11.028,38.22-7.174c13.11,3.855,23.67,13.846,28.248,26.725L204.739,28.58z"/>
	</g>
	<g>
		<rect x="101.548" y="28.328" fill="#020202" width="49.272" height="0.376"/>
	</g>
	<g>
		<path fill="#020202" d="M227.036,55.232H2.352l-0.189-0.188v-24.37l0.189-0.188h224.685l0.189,0.188v24.37L227.036,55.232z
			 M2.54,54.857h224.307V30.863H2.54V54.857z"/>
	</g>
	<g>
		<path fill="#020202" d="M202.438,28.583c-4.444-11.792-14.324-20.933-26.424-24.452c-12.096-3.518-25.337-1.106-35.419,6.46
			l-0.225-0.301c10.171-7.637,23.534-10.076,35.749-6.52c12.214,3.55,22.183,12.777,26.67,24.68L202.438,28.583z"/>
	</g>
	<g>
		<path fill="#020202" d="M150.646,28.584c-4.481-11.621-14.295-20.648-26.248-24.151c-11.953-3.498-25.085-1.191-35.128,6.178
			l-0.221-0.303c10.136-7.438,23.394-9.769,35.453-6.236c12.067,3.535,21.973,12.647,26.494,24.375L150.646,28.584z"/>
	</g>
	<g>
		<path fill="#020202" d="M99.072,28.583C93.194,12.999,78.056,2.528,61.401,2.528c-16.656,0-31.793,10.47-37.671,26.055
			L23.38,28.45c5.931-15.73,21.21-26.298,38.021-26.298c16.811,0,32.091,10.568,38.021,26.298L99.072,28.583z"/>
	</g>
	<g>
		<path fill="#020202" d="M164.848,83.4c-8.579,0-17.093-2.701-24.116-7.854l0.222-0.303c10.066,7.384,23.224,9.686,35.196,6.156
			c11.973-3.527,21.78-12.598,26.23-24.262l0.352,0.135c-4.491,11.773-14.389,20.929-26.477,24.488
			C172.524,82.861,168.68,83.4,164.848,83.4z"/>
	</g>
	<g>
		<path fill="#020202" d="M113.151,83.689c-8.726,0-17.369-2.797-24.465-8.125l0.226-0.303c10.099,7.586,23.366,9.994,35.487,6.444
			c12.119-3.55,21.99-12.733,26.403-24.565l0.354,0.131c-4.454,11.943-14.418,21.213-26.651,24.796
			C120.787,83.156,116.962,83.689,113.151,83.689z"/>
	</g>
	<g>
		<path fill="#020202" d="M61.401,83.418c-8.269,0-16.238-2.479-23.048-7.167c-6.81-4.69-11.967-11.253-14.917-18.978l0.352-0.135
			c5.915,15.493,21.031,25.902,37.613,25.902c16.585,0,31.701-10.409,37.613-25.902l0.351,0.135
			c-2.947,7.725-8.105,14.287-14.916,18.978C77.64,80.939,69.67,83.418,61.401,83.418z"/>
	</g>
	<g>
		<path fill="#020202" d="M61.345,85.566c-4.082,0-8.182-0.58-12.167-1.769C36.201,79.93,25.717,70.013,21.131,57.27l0.355-0.128
			c4.544,12.632,14.936,22.462,27.8,26.296c12.854,3.83,26.938,1.296,37.657-6.785l0.228,0.301
			C79.679,82.604,70.556,85.566,61.345,85.566z"/>
	</g>
	<g>
		<path fill="#020202" d="M21.432,28.58l-0.354-0.126C25.655,15.575,36.216,5.584,49.325,1.729
			c13.109-3.857,27.402-1.173,38.221,7.174l-0.232,0.298C76.591,0.926,62.429-1.729,49.432,2.09
			C36.438,5.913,25.97,15.815,21.432,28.58z"/>
	</g>
	<g>
		<path fill="#020202" d="M138.626,9.203c-15.04-11.341-36.049-11.337-51.083,0l-0.227-0.302c15.169-11.438,36.361-11.439,51.538,0
			L138.626,9.203z"/>
	</g>
	<g>
		<rect x="153.128" y="28.328" fill="#020202" width="49.486" height="0.376"/>
	</g>
	<g>
		<polygon fill="#020202" points="229.196,57.394 204.861,57.394 204.861,57.018 229.007,57.018 229.007,28.705 204.916,28.705 
			204.916,28.328 229.196,28.328 229.386,28.516 229.386,57.205 		"/>
	</g>
	<g>
		<path fill="#020202" d="M88.92,75.558l-0.242-0.288c5.734-4.814,10.104-11.084,12.641-18.128l0.354,0.128
			C99.115,64.377,94.705,70.701,88.92,75.558z"/>
	</g>
	<g>
		<rect x="23.612" y="57.018" fill="#020202" width="75.578" height="0.376"/>
	</g>
	<g>
		<rect x="101.495" y="57.018" fill="#020202" width="49.484" height="0.376"/>
	</g>
	<g>
		<rect x="153.278" y="57.018" fill="#020202" width="49.277" height="0.376"/>
	</g>
	<g>
		<rect x="23.556" y="28.328" fill="#020202" width="75.691" height="0.376"/>
	</g>
	<g>
		<polygon fill="#020202" points="21.31,57.394 0.189,57.394 0,57.205 0,28.516 0.189,28.328 21.254,28.328 21.254,28.705 
			0.378,28.705 0.378,57.018 21.31,57.018 		"/>
	</g>
	<g>
		<path fill="#020202" d="M164.825,85.566c-9.213,0-18.334-2.963-25.825-8.613l0.228-0.301c10.718,8.082,24.797,10.621,37.655,6.785
			c12.864-3.834,23.257-13.663,27.802-26.296l0.354,0.128c-4.586,12.744-15.069,22.661-28.046,26.528
			C173.008,84.986,168.908,85.566,164.825,85.566z"/>
	</g>
	<g>
		<path fill="#020202" d="M113.083,85.835c-9.051,0-18.103-2.843-25.69-8.542l0.225-0.302c15.203,11.416,36.333,11.274,51.381-0.338
			l0.231,0.299C131.558,82.871,122.321,85.835,113.083,85.835z"/>
	</g>
	<g>
		<path fill="#020202" d="M140.966,75.539l-0.245-0.287c5.633-4.838,9.915-11.101,12.38-18.108l0.354,0.124
			C150.97,64.339,146.65,70.656,140.966,75.539z"/>
	</g>
	<g>
		<path fill="#231F20" d="M30.046,36.025h2.643v10.131c0,1.639-0.162,2.857-0.49,3.658c-0.329,0.801-0.818,1.416-1.469,1.845
			c-0.653,0.43-1.455,0.644-2.407,0.644c-1.259,0-2.246-0.432-2.959-1.299c-0.714-0.865-1.074-2.172-1.081-3.918l2.5-0.35
			c0.03,0.939,0.148,1.604,0.361,1.998c0.286,0.538,0.712,0.807,1.283,0.807c0.554,0,0.963-0.193,1.225-0.584
			c0.264-0.389,0.395-1.254,0.395-2.592V36.025z"/>
		<path fill="#231F20" d="M35.516,52.031V36.025h8.997v2.708h-6.354v3.789h5.501v2.707h-5.501v6.803H35.516z"/>
		<path fill="#231F20" d="M52.81,46.156V43.45h5.711v6.375c-0.575,0.677-1.392,1.259-2.445,1.747
			c-1.056,0.487-2.115,0.73-3.178,0.73c-1.295,0-2.438-0.316-3.429-0.954c-0.988-0.636-1.774-1.591-2.352-2.86
			c-0.58-1.27-0.869-2.764-0.869-4.482c0-1.762,0.294-3.268,0.88-4.52c0.586-1.251,1.346-2.187,2.281-2.806
			c0.936-0.618,2.055-0.927,3.358-0.927c1.563,0,2.818,0.397,3.76,1.195c0.943,0.796,1.55,1.968,1.818,3.511l-2.62,0.6
			c-0.196-0.823-0.558-1.453-1.081-1.889c-0.524-0.437-1.149-0.654-1.877-0.654c-1.129,0-2.043,0.438-2.742,1.315
			c-0.698,0.877-1.047,2.215-1.047,4.013c0,1.929,0.378,3.396,1.137,4.399c0.647,0.867,1.523,1.299,2.63,1.299
			c0.517,0,1.053-0.121,1.61-0.364c0.557-0.243,1.053-0.575,1.491-0.996v-2.024H52.81z"/>
		<path fill="#231F20" d="M77.682,50.074l-1.528,2.371c-0.743-0.439-1.46-1.054-2.152-1.846c-0.545,0.605-1.117,1.04-1.719,1.307
			c-0.6,0.265-1.298,0.396-2.092,0.396c-1.578,0-2.75-0.479-3.509-1.439c-0.76-0.959-1.142-2.037-1.142-3.229
			c0-2.058,0.998-3.691,2.992-4.899c-0.896-1.28-1.344-2.451-1.344-3.513c0-1.025,0.334-1.86,1.004-2.504s1.56-0.965,2.666-0.965
			c1.069,0,1.939,0.335,2.615,1.007c0.672,0.673,1.008,1.546,1.008,2.622c0,0.691-0.167,1.325-0.504,1.902
			c-0.336,0.578-0.96,1.219-1.869,1.924l1.807,2.94c0.204-0.45,0.39-1.057,0.557-1.82l2.271,0.635
			c-0.35,1.558-0.73,2.657-1.137,3.299c0.275,0.312,0.639,0.663,1.088,1.049C77.14,49.696,77.471,49.951,77.682,50.074z
			 M69.84,44.701c-0.56,0.35-0.985,0.772-1.281,1.271c-0.295,0.496-0.441,1.018-0.441,1.562c0,0.685,0.183,1.228,0.551,1.631
			c0.368,0.404,0.838,0.605,1.414,0.605c0.749,0,1.525-0.408,2.326-1.222L69.84,44.701z M70.839,41.373l0.675-0.633
			c0.501-0.473,0.751-0.938,0.751-1.396c0-0.422-0.126-0.766-0.382-1.031c-0.253-0.266-0.573-0.399-0.961-0.399
			c-0.377,0-0.685,0.116-0.922,0.35c-0.236,0.232-0.354,0.516-0.354,0.851c0,0.386,0.189,0.847,0.568,1.386L70.839,41.373z"/>
		<path fill="#231F20" d="M90.508,46.156V43.45h5.711v6.375c-0.575,0.677-1.392,1.259-2.445,1.747
			c-1.055,0.487-2.115,0.73-3.178,0.73c-1.295,0-2.438-0.316-3.429-0.954c-0.988-0.636-1.773-1.591-2.352-2.86
			c-0.579-1.27-0.869-2.764-0.869-4.482c0-1.762,0.294-3.268,0.88-4.52c0.587-1.251,1.346-2.187,2.281-2.806
			c0.936-0.618,2.056-0.927,3.358-0.927c1.564,0,2.818,0.397,3.76,1.195c0.943,0.796,1.55,1.968,1.819,3.511l-2.621,0.6
			c-0.196-0.823-0.557-1.453-1.081-1.889s-1.149-0.654-1.877-0.654c-1.129,0-2.043,0.438-2.741,1.315
			c-0.698,0.877-1.048,2.215-1.048,4.013c0,1.929,0.378,3.396,1.137,4.399c0.647,0.867,1.523,1.299,2.63,1.299
			c0.517,0,1.053-0.121,1.61-0.364c0.557-0.243,1.053-0.575,1.491-0.996v-2.024H90.508z"/>
		<path fill="#231F20" d="M97.998,46.812l2.589-0.305c0.291,2.045,1.243,3.067,2.858,3.067c0.801,0,1.432-0.209,1.89-0.628
			c0.459-0.417,0.689-0.936,0.689-1.555c0-0.363-0.08-0.673-0.24-0.927c-0.16-0.256-0.404-0.465-0.732-0.629
			c-0.328-0.163-1.12-0.438-2.379-0.822c-1.131-0.342-1.955-0.713-2.48-1.112c-0.523-0.4-0.939-0.925-1.25-1.576
			c-0.308-0.652-0.464-1.352-0.464-2.101c0-0.873,0.198-1.659,0.596-2.356c0.397-0.699,0.946-1.227,1.644-1.582
			c0.699-0.356,1.561-0.534,2.587-0.534c1.543,0,2.748,0.418,3.614,1.255c0.866,0.837,1.325,2.034,1.374,3.593l-2.652,0.141
			c-0.116-0.858-0.366-1.459-0.754-1.801c-0.384-0.342-0.935-0.514-1.647-0.514s-1.262,0.149-1.648,0.447
			c-0.386,0.297-0.578,0.668-0.578,1.11c0,0.435,0.175,0.801,0.525,1.1c0.35,0.297,1.154,0.625,2.412,0.981
			c1.332,0.387,2.296,0.792,2.888,1.218c0.593,0.426,1.046,0.976,1.359,1.647c0.313,0.674,0.468,1.49,0.468,2.451
			c0,1.39-0.428,2.558-1.282,3.504c-0.855,0.945-2.192,1.418-4.013,1.418C100.154,52.303,98.363,50.473,97.998,46.812z"/>
		<path fill="#231F20" d="M122.739,52.031h-2.873l-1.15-3.626h-5.252l-1.087,3.626h-2.815l5.109-16.006h2.808L122.739,52.031z
			 M117.864,45.698l-1.813-5.939l-1.776,5.939H117.864z"/>
		<path fill="#231F20" d="M123.371,47.762v-3.068h4.946v3.068H123.371z"/>
		<path fill="#231F20" d="M135.326,52.031V36.025h4.259c1.587,0,2.623,0.077,3.111,0.229c0.779,0.248,1.422,0.775,1.928,1.583
			c0.504,0.809,0.758,1.849,0.758,3.122c0,1.158-0.218,2.128-0.656,2.911c-0.436,0.782-0.98,1.332-1.636,1.648
			s-1.783,0.474-3.386,0.474h-1.735v6.039H135.326z M137.969,38.733v4.553h1.467c0.984,0,1.654-0.069,2.008-0.208
			c0.354-0.139,0.644-0.389,0.87-0.75c0.228-0.36,0.339-0.804,0.339-1.33c0-0.532-0.117-0.98-0.351-1.346
			c-0.233-0.365-0.521-0.609-0.864-0.732c-0.342-0.125-1.067-0.187-2.178-0.187H137.969z"/>
		<path fill="#231F20" d="M158.058,52.031h-2.873l-1.148-3.626h-5.254l-1.086,3.626h-2.816l5.111-16.006h2.807L158.058,52.031z
			 M153.183,45.698l-1.812-5.939l-1.778,5.939H153.183z"/>
		<path fill="#231F20" d="M159.368,52.031V36.025h2.643v16.006H159.368z"/>
		<path fill="#231F20" d="M164.575,52.031V36.025h2.576l5.372,10.688V36.025h2.468v16.006h-2.664l-5.285-10.438v10.438H164.575z"/>
		<path fill="#231F20" d="M177.785,52.031V36.025h9.739v2.708h-7.098v3.548h6.596v2.696h-6.596v4.346h7.338v2.708H177.785z
			 M181.158,34.955l1.238-3.265h2.835l-2.475,3.265H181.158z"/>
		<path fill="#231F20" d="M189.927,52.031V36.025h2.642v16.006H189.927z"/>
		<path fill="#231F20" d="M194.436,46.812l2.588-0.305c0.291,2.045,1.243,3.067,2.858,3.067c0.803,0,1.432-0.209,1.89-0.628
			c0.46-0.417,0.689-0.936,0.689-1.555c0-0.363-0.081-0.673-0.241-0.927c-0.16-0.256-0.403-0.465-0.732-0.629
			c-0.327-0.163-1.119-0.438-2.378-0.822c-1.13-0.342-1.954-0.713-2.479-1.112c-0.525-0.4-0.941-0.925-1.252-1.576
			c-0.308-0.652-0.463-1.352-0.463-2.101c0-0.873,0.198-1.659,0.595-2.356c0.397-0.699,0.945-1.227,1.645-1.582
			c0.698-0.356,1.56-0.534,2.586-0.534c1.545,0,2.749,0.418,3.614,1.255c0.866,0.837,1.325,2.034,1.375,3.593l-2.653,0.141
			c-0.116-0.858-0.366-1.459-0.752-1.801c-0.386-0.342-0.937-0.514-1.649-0.514s-1.262,0.149-1.648,0.447
			c-0.386,0.297-0.578,0.668-0.578,1.11c0,0.435,0.174,0.801,0.525,1.1c0.35,0.297,1.155,0.625,2.413,0.981
			c1.332,0.387,2.295,0.792,2.888,1.218c0.592,0.426,1.045,0.976,1.358,1.647c0.312,0.674,0.468,1.49,0.468,2.451
			c0,1.39-0.428,2.558-1.283,3.504c-0.854,0.945-2.191,1.418-4.01,1.418C196.59,52.303,194.8,50.473,194.436,46.812z"/>
	</g>
</g>
</svg>
